<?xml version="1.0" encoding="UTF-8"?>
<svg width="500px" height="497px" viewBox="0 0 500 497" version="1.1" xmlns="http://www.w3.org/2000/svg" xmlns:xlink="http://www.w3.org/1999/xlink">
    <!-- Generator: Sketch 51.1 (57501) - http://www.bohemiancoding.com/sketch -->
    <title>chats</title>
    <desc>Created with Sketch.</desc>
    <defs></defs>
    <g id="Page-1" stroke="none" stroke-width="1" fill="none" fill-rule="evenodd">
        <g id="chats" fill-rule="nonzero">
            <g id="Group" transform="translate(67.000000, 56.000000)" fill="#F64028">
                <path d="M96.696,360.848 L40.696,360.848 C18.64,360.848 0.696,342.904 0.696,320.848 C0.696,298.792 18.64,280.848 40.696,280.848 L83.368,280.848 L136.696,240.848 L136.696,320.848 C136.696,342.904 118.752,360.848 96.696,360.848 Z" id="Shape"></path>
                <path d="M248.696,120.848 L248.696,40.848 C248.696,18.792 266.64,0.848 288.696,0.848 L344.696,0.848 C366.752,0.848 384.696,18.792 384.696,40.848 C384.696,62.904 366.752,80.848 344.696,80.848 L302.024,80.848 L248.696,120.848 Z" id="Shape"></path>
            </g>
            <g id="Group">
                <path d="M359.696,0.848 C287.544,0.848 227.992,55.72 220.52,125.928 C208.76,122.712 196.456,120.848 183.696,120.848 C106.504,120.848 43.696,183.656 43.696,260.848 C43.696,265.184 43.944,269.736 44.456,274.688 L0,348.784 L43.696,366.264 L43.696,440.848 L107.696,440.848 L107.696,496.848 L259.696,496.848 L259.696,409.488 C272.232,400.712 283.024,389.728 292.016,376.848 L435.696,376.848 L435.696,289.488 C477.008,260.568 499.696,207.992 499.696,140.848 C499.696,63.656 436.888,0.848 359.696,0.848 Z M199.392,220.912 L236.968,158.272 L236.648,155.552 C236.36,153.104 236.152,150.808 236,148.576 C278.272,168.352 307.696,211.176 307.696,260.848 C307.696,283.416 304.936,304.104 299.696,322.576 L299.696,304.848 L235.696,304.848 L235.696,235.432 L199.392,220.912 Z M247.336,398.528 L243.696,400.896 L243.696,480.848 L123.696,480.848 L123.696,424.848 L59.696,424.848 L59.696,355.432 L23.392,340.912 L60.968,278.272 L60.648,275.552 C60.008,270.152 59.696,265.344 59.696,260.848 C59.696,192.472 115.32,136.848 183.696,136.848 C196.232,136.848 208.32,138.752 219.736,142.224 C219.784,146.152 220,150.248 220.456,154.688 L176,228.784 L219.696,246.264 L219.696,320.848 L283.696,320.848 L283.696,360.312 C274.2,376.088 262.016,388.992 247.336,398.528 Z M423.336,278.528 L419.696,280.896 L419.696,360.848 L301.712,360.848 C316.08,333.536 323.696,299.648 323.696,260.848 C323.696,202.216 287.432,151.968 236.184,131.152 C241.16,67.304 294.592,16.848 359.696,16.848 C428.072,16.848 483.696,72.472 483.696,140.848 C483.696,204.344 462.256,253.24 423.336,278.528 Z" id="Shape" fill="#B3B3B3"></path>
                <rect id="Rectangle-path" fill="#FFFFFF" x="99.696" y="368.848" width="72" height="16"></rect>
                <rect id="Rectangle-path" fill="#FFFFFF" x="347.696" y="88.848" width="72" height="16"></rect>
            </g>
        </g>
    </g>
</svg>