<?xml version="1.0" encoding="UTF-8"?>
<svg width="440px" height="440px" viewBox="0 0 440 440" version="1.1" xmlns="http://www.w3.org/2000/svg" xmlns:xlink="http://www.w3.org/1999/xlink">
    <!-- Generator: Sketch 51.1 (57501) - http://www.bohemiancoding.com/sketch -->
    <title>check</title>
    <desc>Created with Sketch.</desc>
    <defs></defs>
    <g id="Page-1" stroke="none" stroke-width="1" fill="none" fill-rule="evenodd">
        <g id="check" fill="#F64028" fill-rule="nonzero">
            <path d="M145.031,169.879 C142.365,167.022 138.942,165.593 134.755,165.593 C130.563,165.593 127.234,167.027 124.76,169.879 L90.214,204.137 C87.548,206.804 86.217,210.133 86.217,214.131 C86.217,218.128 87.551,221.559 90.214,224.413 L206.417,340.896 C208.701,343.182 211.555,344.517 214.981,344.9 C215.364,345.091 215.936,345.18 216.695,345.18 C220.5,345.18 224.019,343.749 227.259,340.896 L435.676,132.476 C438.345,129.617 439.68,126.193 439.68,122.194 C439.68,118.197 438.345,114.77 435.676,111.917 L401.42,77.654 C398.566,74.798 395.137,73.373 391.14,73.373 C387.143,73.373 383.714,74.802 380.86,77.654 L216.98,241.824 L145.031,169.879 Z" id="Shape"></path>
            <path d="M422.835,182.435 L246.108,359.164 C238.682,366.967 229.26,370.875 217.841,370.875 L209.847,370.875 L208.134,369.731 C201.09,368.013 194.716,364.496 189.004,359.164 L73.089,242.681 C65.094,234.687 61.097,225.166 61.097,214.131 C61.097,202.903 65.094,193.484 73.089,185.869 L107.35,151.324 C115.154,143.52 124.668,139.615 135.899,139.615 C146.749,139.615 156.172,143.614 164.165,151.606 L217.841,205.283 L331.467,91.364 L255.81,15.704 C245.721,5.619 233.542,0.576 219.263,0.576 C204.988,0.576 192.806,5.618 182.721,15.704 L15.131,183.292 C5.042,193.382 0,205.562 0,219.839 C0,234.118 5.046,246.294 15.131,256.386 L182.725,423.972 C192.81,434.061 205.039,439.102 219.41,439.102 C233.782,439.102 245.913,434.061 255.813,423.972 L423.403,256.386 C433.492,246.293 438.536,234.117 438.536,219.835 C438.536,205.554 433.492,193.378 423.403,183.288 L422.835,182.435 Z" id="Shape" opacity="0.25"></path>
        </g>
    </g>
</svg>