<?xml version="1.0" encoding="UTF-8"?>
<svg width="512px" height="512px" viewBox="0 0 512 512" version="1.1" xmlns="http://www.w3.org/2000/svg" xmlns:xlink="http://www.w3.org/1999/xlink">
    <!-- Generator: Sketch 51 (57462) - http://www.bohemiancoding.com/sketch -->
    <title>contact</title>
    <desc>Created with Sketch.</desc>
    <defs></defs>
    <g id="Page-1" stroke="none" stroke-width="1" fill="none" fill-rule="evenodd">
        <g id="contact" fill="#F64028" fill-rule="nonzero">
            <path d="M161.291,353 C159.431,351.14 156.851,350.069 154.221,350.069 C151.591,350.069 149.011,351.139 147.151,353 C145.291,354.859 144.221,357.439 144.221,360.069 C144.221,362.7 145.291,365.28 147.151,367.139 C149.011,368.999 151.591,370.069 154.221,370.069 C156.851,370.069 159.431,369 161.291,367.139 C163.151,365.28 164.221,362.7 164.221,360.069 C164.221,357.439 163.151,354.859 161.291,353 Z" id="Shape"></path>
            <path d="M495.229,364.052 L422.934,291.757 C412.144,280.967 397.799,275.025 382.539,275.025 C367.279,275.025 352.935,280.967 342.145,291.757 L316.934,316.967 C316.933,316.968 316.932,316.969 316.931,316.97 C316.93,316.971 316.929,316.972 316.928,316.973 L306.857,327.043 L184.854,205.04 L220.141,169.754 C242.414,147.48 242.414,111.238 220.141,88.964 L147.908,16.732 C125.635,-5.539 89.393,-5.539 67.119,16.732 L48.066,35.784 C-15.971,99.822 -15.971,204.019 48.066,268.057 L118.318,338.309 C122.223,342.213 128.555,342.213 132.461,338.309 C136.366,334.404 136.366,328.072 132.461,324.166 L62.209,253.914 C10.453,202.159 6.33,120.534 49.835,64.015 L125.776,139.957 C127.729,141.909 130.288,142.886 132.847,142.886 C135.406,142.886 137.966,141.909 139.918,139.957 C143.823,136.052 143.824,129.72 139.918,125.814 L63.12,49.015 L81.261,30.874 C95.737,16.4 119.29,16.398 133.766,30.874 L205.998,103.106 C220.474,117.582 220.474,141.135 205.998,155.611 L163.64,197.968 C161.765,199.844 160.711,202.387 160.711,205.039 C160.711,207.691 161.765,210.234 163.64,212.11 L299.786,348.256 C303.692,352.162 310.024,352.161 313.928,348.256 L324.002,338.183 L447.952,462.133 C422.861,481.501 392.259,492 360.04,492 C321.512,492 285.29,476.996 258.046,449.752 L186.794,378.5 C182.89,374.596 176.557,374.596 172.652,378.5 C168.747,382.405 168.747,388.737 172.652,392.643 L243.904,463.895 C274.925,494.916 316.17,512 360.04,512 C403.911,512 445.156,494.916 476.177,463.895 L495.229,444.842 C506.019,434.053 511.961,419.707 511.961,404.447 C511.961,389.188 506.019,374.843 495.229,364.052 Z M481.087,430.699 L462.945,448.841 L338.145,324.041 L356.287,305.899 C363.299,298.886 372.622,295.024 382.539,295.024 C392.456,295.024 401.779,298.886 408.791,305.899 L481.086,378.195 C488.099,385.207 491.961,394.531 491.961,404.447 C491.961,414.364 488.1,423.688 481.087,430.699 Z" id="Shape"></path>
            <path d="M164.201,150.1 C162.341,148.23 159.761,147.17 157.131,147.17 C154.501,147.17 151.921,148.23 150.061,150.1 C148.201,151.96 147.131,154.531 147.131,157.17 C147.131,159.8 148.201,162.38 150.061,164.24 C151.921,166.1 154.501,167.17 157.131,167.17 C159.761,167.17 162.341,166.1 164.201,164.24 C166.061,162.38 167.131,159.8 167.131,157.17 C167.131,154.54 166.061,151.96 164.201,150.1 Z" id="Shape"></path>
            <rect id="Rectangle" x="377" y="40" width="20" height="93.4666841" rx="10"></rect>
            <path d="M394.031,151.98 C392.171,150.12 389.591,149.06 386.961,149.06 C384.331,149.06 381.751,150.121 379.891,151.98 C378.031,153.85 376.961,156.42 376.961,159.06 C376.961,161.69 378.031,164.27 379.891,166.13 C381.751,167.99 384.331,169.06 386.961,169.06 C389.591,169.06 392.171,167.991 394.031,166.13 C395.891,164.269 396.961,161.69 396.961,159.06 C396.961,156.42 395.891,153.85 394.031,151.98 Z" id="Shape"></path>
            <path d="M461.961,0 L311.961,0 C284.391,0 261.961,22.43 261.961,50 L261.961,163.973 C261.961,191.543 284.391,213.973 311.961,213.973 L349.886,213.973 L379.159,252.091 C381.052,254.556 383.983,256 387.09,256 C387.096,256 387.102,256 387.108,256 C390.222,255.994 393.155,254.538 395.043,252.062 L424.075,213.973 L461.96,213.973 C489.53,213.973 511.96,191.543 511.96,163.973 L511.96,50 C511.961,22.43 489.532,0 461.961,0 Z M491.963,163.973 L491.961,163.973 C491.961,180.515 478.503,193.973 461.961,193.973 L419.125,193.973 C416.005,193.973 413.063,195.429 411.172,197.911 L387.062,229.543 L362.748,197.882 C360.855,195.417 357.924,193.973 354.817,193.973 L311.963,193.973 C295.421,193.973 281.963,180.515 281.963,163.973 L281.963,50 C281.963,33.458 295.421,20 311.963,20 L461.963,20 C478.505,20 491.963,33.458 491.963,50 L491.963,163.973 Z" id="Shape"></path>
        </g>
    </g>
</svg>