<?xml version="1.0" encoding="UTF-8"?>
<svg width="496px" height="496px" viewBox="0 0 496 496" version="1.1" xmlns="http://www.w3.org/2000/svg" xmlns:xlink="http://www.w3.org/1999/xlink">
    <!-- Generator: Sketch 51.1 (57501) - http://www.bohemiancoding.com/sketch -->
    <title>document</title>
    <desc>Created with Sketch.</desc>
    <defs></defs>
    <g id="Page-1" stroke="none" stroke-width="1" fill="none" fill-rule="evenodd">
        <g id="document" fill-rule="nonzero">
            <g id="Group" transform="translate(40.000000, 101.000000)">
                <rect id="Rectangle-path" fill="#F64028" x="0.008" y="0" width="328" height="16"></rect>
                <rect id="Rectangle-path" fill="#F64028" x="0.008" y="40" width="328" height="16"></rect>
                <rect id="Rectangle-path" fill="#F64028" x="0.008" y="80" width="328" height="16"></rect>
                <rect id="Rectangle-path" fill="#F64028" x="0.008" y="120" width="328" height="16"></rect>
                <path d="M197.647068,325.360932 L240.821177,319.193202 L256.511385,291.988666 L231.019334,266.496615 L203.814798,282.186823 L197.647068,325.360932 Z" id="Shape" stroke="#B3B3B3" stroke-width="12"></path>
            </g>
            <g id="Group">
                <polygon id="Shape" fill="#F64028" points="262.84 389.856 228.696 424 56.008 424 56.008 440 240.008 440 240.008 435.312 274.152 401.168"></polygon>
                <path d="M482.712,215.392 L491.768,206.336 C497.4,200.704 497.4,191.536 491.768,185.904 L478.096,172.232 C472.472,166.592 463.288,166.6 457.664,172.232 L408.008,221.904 L408.008,72 L472.008,72 L472.008,44 C472.008,19.744 452.264,0 428.008,0 L44.008,0 C19.752,0 0.008,19.744 0.008,44 L0.008,64 L0.008,496 L408.008,496 L408.008,290.096 L471.4,226.704 L474.304,229.608 C477.08,232.384 478.608,236.072 478.608,240 C478.608,243.928 477.08,247.616 474.304,250.392 L434.352,290.344 L445.664,301.656 L485.616,261.704 C497.584,249.736 497.584,230.264 485.616,218.296 L482.712,215.392 Z M467.888,184.648 L479.36,196.12 L471.4,204.08 L459.928,192.608 L467.888,184.648 Z M456.008,44 L456.008,56 L88.008,56 L88.008,44 C88.008,33.376 84.216,23.616 77.92,16 L428.008,16 C443.448,16 456.008,28.56 456.008,44 Z M392.008,480 L16.008,480 L16.008,64 L16.008,44 C16.008,28.56 28.568,16 44.008,16 C59.448,16 72.008,28.56 72.008,44 L72.008,56 L72.008,64 L72.008,72 L392.008,72 L392.008,237.904 L268.576,361.336 L302.672,395.432 L392.008,306.096 L392.008,480 Z M302.672,349.864 L314.144,361.336 L302.672,372.808 L291.2,361.336 L302.672,349.864 Z M325.456,350.016 L313.984,338.544 L448.616,203.92 L460.088,215.392 L325.456,350.016 Z" id="Shape" fill="#B3B3B3"></path>
            </g>
        </g>
    </g>
</svg>