<?xml version="1.0" encoding="utf-8"?>
<!-- Generator: Adobe Illustrator 22.1.0, SVG Export Plug-In . SVG Version: 6.00 Build 0)  -->
<svg version="1.1" id="Capa_1" xmlns="http://www.w3.org/2000/svg" xmlns:xlink="http://www.w3.org/1999/xlink" x="0px" y="0px"
	 viewBox="0 0 34.6 60.6" style="enable-background:new 0 0 34.6 60.6;" xml:space="preserve">
<style type="text/css">
	.st0{fill:#F45842;}
</style>
<path class="st0" d="M4.7,60.6c-2.6,0-4.7-2.1-4.7-4.7V4.7C0,2.1,2.1,0,4.7,0h25.2c2.6,0,4.7,2.1,4.7,4.7v51.2
	c0,2.6-2.1,4.7-4.7,4.7H4.7z M2.6,55.9c0,1.2,0.9,2.1,2.1,2.1h25.2c1.2,0,2.1-0.9,2.1-2.1v-7.3H2.6V55.9z M32,46V8.6H2.6V46H32z
	 M32,6V4.7c0-1.2-0.9-2.1-2.1-2.1H4.7c-1.2,0-2.1,0.9-2.1,2.1V6H32z"/>
<path class="st0" d="M17.3,57.6c-2.4,0-4.3-1.9-4.3-4.3s1.9-4.3,4.3-4.3s4.3,1.9,4.3,4.3S19.7,57.6,17.3,57.6z M17.3,51.6
	c-0.9,0-1.7,0.8-1.7,1.7s0.8,1.7,1.7,1.7s1.7-0.8,1.7-1.7S18.2,51.6,17.3,51.6z"/>
<path class="st0" d="M13.3,5.6C12.6,5.6,12,5,12,4.3S12.6,3,13.3,3h4c0.7,0,1.3,0.6,1.3,1.3S18,5.6,17.3,5.6H13.3z"/>
<path class="st0" d="M20.3,5.6C19.6,5.6,19,5,19,4.3S19.6,3,20.3,3h1c0.7,0,1.3,0.6,1.3,1.3S22,5.6,21.3,5.6H20.3z"/>
</svg>
