<?xml version="1.0" encoding="UTF-8"?>
<svg width="496px" height="496px" viewBox="0 0 496 496" version="1.1" xmlns="http://www.w3.org/2000/svg" xmlns:xlink="http://www.w3.org/1999/xlink">
    <!-- Generator: Sketch 51.1 (57501) - http://www.bohemiancoding.com/sketch -->
    <title>money-bag</title>
    <desc>Created with Sketch.</desc>
    <defs></defs>
    <g id="Page-1" stroke="none" stroke-width="1" fill="none" fill-rule="evenodd">
        <g id="money-bag">
            <circle id="Oval" fill="#F64028" fill-rule="nonzero" cx="248" cy="328" r="128"></circle>
            <g id="Group">
                <path d="M198,369.871094 L198,355.027344 L216.945312,355.027344 L216.945312,343.992188 L198,343.992188 L198,327.390625 L216.945312,327.390625 L216.945312,269.480469 L198,269.480469 L198,252 L256.398438,252 C266.164111,252 274.46481,253.10676 281.300781,255.320312 C288.136753,257.533865 293.751931,260.642558 298.146484,264.646484 C302.541038,268.650411 305.747386,273.386691 307.765625,278.855469 C309.783864,284.324246 310.858072,290.248666 310.988281,296.628906 C310.988281,304.766968 309.588556,311.798147 306.789062,317.722656 C303.989569,323.647165 300.148462,328.578756 295.265625,332.517578 C290.382788,336.4564 284.718782,339.353506 278.273438,341.208984 C271.828093,343.064462 264.992224,343.992188 257.765625,343.992188 L237.746094,343.992188 L237.746094,355.027344 L287.550781,355.027344 L287.550781,369.871094 L237.746094,369.871094 L237.746094,404.636719 L216.945312,404.636719 L216.945312,369.871094 L198,369.871094 Z M237.746094,327.390625 L251.125,327.390625 C258.22139,327.390625 264.129534,326.65821 268.849609,325.193359 C273.569685,323.728508 277.361965,321.62892 280.226562,318.894531 C283.09116,316.160143 285.125645,312.937519 286.330078,309.226562 C287.534511,305.515606 288.136719,301.31643 288.136719,296.628906 C288.136719,288.230427 285.304716,281.606144 279.640625,276.755859 C273.976534,271.905575 265.285215,269.480469 253.566406,269.480469 L237.746094,269.480469 L237.746094,327.390625 Z" id="₽" fill="#FFFFFF"></path>
                <path d="M495.417,194.753 C498.305,170.929 490.417,145.945 473.753,126.201 L468.393,119.841 C464.193,114.857 458.025,112.001 451.457,112.001 C442.337,112.001 434.057,117.657 430.833,126.081 C417.905,159.921 393.145,188.449 361.129,206.401 L360.961,206.497 L332.121,173.593 C343.769,168.801 352.009,157.361 352.009,144.001 C352.009,133.977 347.289,125.137 340.057,119.265 L371.369,87.953 C373.745,85.577 375.561,82.641 376.625,79.449 L378.673,73.329 C380.641,67.401 379.977,60.905 376.841,55.505 C373.705,50.105 368.401,46.321 362.297,45.097 L308.969,34.433 L310.905,28.625 C311.633,26.401 312.009,24.097 312.009,21.769 C312.009,9.769 302.241,0.001 290.241,0.001 L205.777,0.001 C193.777,0.001 184.009,9.769 184.009,21.769 C184.009,24.097 184.385,26.401 185.129,28.649 L187.057,34.433 L133.737,45.097 C127.617,46.313 122.313,50.105 119.185,55.505 C116.041,60.905 115.377,67.393 117.353,73.329 L119.393,79.457 C120.457,82.641 122.273,85.585 124.649,87.953 L155.961,119.265 C148.729,125.137 144.009,133.977 144.009,144.001 C144.009,157.361 152.249,168.801 163.905,173.585 L135.065,206.489 L134.889,206.401 C102.873,188.449 78.113,159.921 65.177,126.081 C61.961,117.657 53.681,112.001 44.561,112.001 C37.993,112.001 31.817,114.857 27.625,119.833 L22.265,126.193 C5.601,145.945 -2.287,170.929 0.577,194.505 L0.673,195.305 C3.529,217.761 14.577,238.425 31.385,253.593 L26.241,258.753 C14.489,270.529 8.009,286.185 8.009,302.833 C8.009,317.441 13.025,331.121 21.793,341.985 L13.593,358.065 C7.953,369.161 6.521,381.905 9.593,393.953 C12.785,406.521 20.585,417.401 31.537,424.561 C47.169,434.793 65.097,440.049 83.273,440.049 C93.217,440.049 103.241,438.481 113.001,435.281 L114.713,434.721 C143.433,472.041 187.361,496.001 236.577,496.001 L259.433,496.001 C308.649,496.001 352.577,472.041 381.297,434.729 L383.017,435.289 C392.769,438.481 402.793,440.057 412.737,440.057 C430.905,440.057 448.841,434.809 464.465,424.569 C475.425,417.401 483.225,406.529 486.417,393.961 C489.489,381.913 488.057,369.161 482.409,358.073 L474.217,341.993 C482.993,331.129 488.009,317.449 488.009,302.833 C488.009,286.185 481.529,270.529 469.785,258.745 L464.641,253.585 C481.441,238.409 492.497,217.681 495.417,194.753 Z M359.161,60.793 C361.369,61.241 362.521,62.705 363.001,63.545 C363.497,64.385 364.201,66.121 363.497,68.273 L361.457,74.385 C361.169,75.233 360.689,76.017 360.057,76.649 L324.265,112.441 C322.857,112.241 321.465,112.001 320.009,112.001 L283.105,112.001 L303.865,49.729 L359.161,60.793 Z M205.777,16.001 L290.249,16.001 C293.425,16.001 296.009,18.585 296.009,21.769 C296.009,22.377 295.905,23.017 295.721,23.593 L266.249,112.001 L229.769,112.001 L200.313,23.609 C200.113,23.017 200.009,22.377 200.009,21.769 C200.009,18.585 202.593,16.001 205.777,16.001 Z M135.961,76.641 C135.329,76.009 134.849,75.225 134.561,74.385 L132.529,68.265 C131.809,66.113 132.521,64.385 133.017,63.537 C133.505,62.705 134.649,61.233 136.865,60.785 L192.153,49.729 L212.913,112.001 L176.009,112.001 C174.553,112.001 173.161,112.241 171.753,112.433 L135.961,76.641 Z M40.297,411.177 C32.705,406.209 27.305,398.689 25.097,390.017 C22.993,381.729 23.969,372.961 27.857,365.329 L33.929,353.401 C36.601,355.321 39.401,357.097 42.417,358.609 L49.585,344.297 C33.809,336.409 24.009,320.513 24.009,302.833 C24.009,290.449 28.825,278.809 37.561,270.041 L44.105,263.481 L66.041,278.849 L75.225,265.737 L49.729,247.881 C31.417,235.049 19.313,215.145 16.481,192.801 C14.113,173.385 20.673,152.865 34.489,136.497 L39.849,130.137 C42.577,126.881 48.721,127.865 50.225,131.785 C64.121,168.137 90.425,198.825 124.361,218.673 L121.753,221.649 C107.825,237.529 97.425,254.481 90.849,272.009 C83.657,291.201 80.009,311.385 80.009,332.001 C80.009,364.745 89.321,395.217 105.169,420.849 C83.041,427.193 59.577,423.801 40.297,411.177 Z M259.441,480.001 L236.585,480.001 C159.073,480.001 96.009,413.609 96.009,332.001 C96.009,313.313 99.313,295.025 105.841,277.649 C111.737,261.929 121.137,246.641 133.793,232.209 L183.065,176.001 L280.009,176.001 L280.009,160.001 L176.009,160.001 C167.185,160.001 160.009,152.825 160.009,144.001 C160.009,135.177 167.185,128.001 176.009,128.001 L320.009,128.001 C328.833,128.001 336.009,135.177 336.009,144.001 C336.009,152.825 328.833,160.001 320.009,160.001 L296.009,160.001 L296.009,176.001 L312.953,176.001 L362.225,232.209 C374.881,246.641 384.281,261.929 390.177,277.649 C396.705,295.025 400.009,313.313 400.009,332.001 C400.009,413.609 336.945,480.001 259.441,480.001 Z M472.009,302.833 C472.009,320.513 462.209,336.401 446.433,344.305 L453.601,358.617 C456.617,357.105 459.417,355.329 462.089,353.409 L468.153,365.337 C472.041,372.969 473.017,381.737 470.921,390.025 C468.713,398.697 463.313,406.209 455.713,411.185 C436.441,423.809 412.953,427.201 390.849,420.849 C406.697,395.217 416.009,364.745 416.009,332.001 C416.009,311.385 412.361,291.201 405.169,272.025 C398.593,254.497 388.193,237.545 374.265,221.665 L371.657,218.689 C405.593,198.841 431.889,168.153 445.785,131.801 C447.297,127.881 453.433,126.905 456.169,130.153 L461.529,136.513 C475.345,152.881 481.905,173.401 479.481,193.297 C476.697,215.161 464.601,235.073 446.289,247.897 L420.793,265.753 L429.977,278.865 L451.913,263.497 L458.457,270.057 C467.193,278.817 472.009,290.457 472.009,302.833 Z" id="Shape" fill="#B3B3B3" fill-rule="nonzero"></path>
            </g>
        </g>
    </g>
</svg>