<?xml version="1.0" encoding="UTF-8"?>
<svg width="378px" height="298px" viewBox="0 0 378 298" version="1.1" xmlns="http://www.w3.org/2000/svg" xmlns:xlink="http://www.w3.org/1999/xlink">
    <!-- Generator: Sketch 50.2 (55047) - http://www.bohemiancoding.com/sketch -->
    <title>car</title>
    <desc>Created with Sketch.</desc>
    <defs></defs>
    <g id="Page-1" stroke="none" stroke-width="1" fill="none" fill-rule="evenodd">
        <g id="car">
            <path d="M375.828004,82.926006 C373.979408,80.6668777 371.221032,79.3482449 368.327157,79.3482449 L331.539128,79.3482449 C322.460683,55.3607626 310.63354,31.8580719 297.190085,22.9863879 C250.68483,-7.66212928 127.33218,-7.66212928 80.8269245,22.9863879 C67.3737912,31.8677677 55.5950408,55.399546 46.4682029,79.3482449 L9.68017452,79.3482449 C6.75726356,79.3482449 4.00856583,80.6668777 2.17932685,82.926006 C0.340409359,85.1754384 -0.395157638,88.1520581 0.204910176,91.0123278 L5.65391306,117.462551 C6.58305032,121.971111 10.5512407,125.190127 15.1291774,125.190127 L26.0271832,125.190127 C15.5066394,137.348697 10.406063,152.658412 10.3383134,167.977823 C10.2705638,186.904082 17.442342,204.007525 30.5567273,216.10792 C30.6535125,216.191951 33.0602087,227.351738 37.7768161,249.587281 C37.7768161,257.605732 44.2807769,264.131026 52.2945858,264.131026 L75.2775851,264.131026 C83.291394,264.131026 89.7953548,257.605732 89.7953548,249.587281 L93.9509883,238.582853 L284.046664,238.582853 L289.11748,250.645251 C289.11748,258.663702 295.621441,265.188995 303.635249,265.188995 L329.747431,264.131026 C337.741882,264.131026 344.2652,257.605732 344.2652,249.587281 L347.015071,217.174462 C360.932773,204.405054 367.581911,186.836211 367.669018,169.296455 C367.727089,153.45347 362.394228,137.581397 351.25426,125.170735 L362.878154,125.170735 C367.475448,125.170735 371.443638,121.95172 372.353418,117.433463 L377.8121,90.9929362 C378.373453,88.1520581 377.666922,85.1948301 375.828004,82.926006 Z M96.7674356,47.2744408 C133.836141,22.8312546 244.161512,22.8312546 281.21086,47.2744408 C288.411674,52.0060056 297.674011,71.1358773 306.162067,94.5610014 L71.8355858,94.5610014 C80.3042848,71.1455731 89.5666218,52.0253973 96.7674356,47.2744408 Z M53.3496257,171.623455 C53.3496257,155.819252 66.1446201,143.020757 81.9109179,143.020757 C97.6965728,143.020757 110.47221,155.819252 110.47221,171.623455 C110.47221,187.427657 97.6965728,200.235847 81.9109179,200.235847 C66.1446201,200.235847 53.3496257,187.427657 53.3496257,171.623455 Z M296.464197,200.235847 C280.697899,200.235847 267.902905,187.427657 267.902905,171.623455 C267.902905,155.819252 280.697899,143.020757 296.464197,143.020757 C312.249852,143.020757 325.025489,155.819252 325.025489,171.623455 C325.025489,187.427657 312.230495,200.235847 296.464197,200.235847 Z" id="Shape" fill="#24B55D" fill-rule="nonzero"></path>
            <path d="M95.5,246.087242 L95.5,269 C95.5,280.874122 85.8741221,290.5 74,290.5 L39,290.5 C27.1258779,290.5 17.5,280.874122 17.5,269 L17.5,214.250558 L30.1119155,225.998163 C44.0964201,239.024292 63.7260195,246.087242 88,246.087242 L95.5,246.087242 Z" id="Combined-Shape" stroke="#FFFFFF" stroke-width="15" fill="#FFB731"></path>
            <path d="M358.5,246.095093 L358.5,268.930314 C358.5,280.804436 348.874122,290.430314 337,290.430314 L302,290.430314 C290.125878,290.430314 280.5,280.804436 280.5,268.930314 L280.5,215.194231 L293.05951,226.671969 C306.89628,239.316953 326.48838,246.095093 351,246.095093 L358.5,246.095093 Z" id="Combined-Shape-Copy" stroke="#FFFFFF" stroke-width="15" fill="#FFB731" transform="translate(319.500000, 256.872986) scale(-1, 1) translate(-319.500000, -256.872986) "></path>
        </g>
    </g>
</svg>