<?xml version="1.0" encoding="UTF-8"?>
<svg width="209px" height="129px" viewBox="0 0 209 129" version="1.1" xmlns="http://www.w3.org/2000/svg" xmlns:xlink="http://www.w3.org/1999/xlink">
    <!-- Generator: Sketch 50.2 (55047) - http://www.bohemiancoding.com/sketch -->
    <title>Clean</title>
    <desc>Created with Sketch.</desc>
    <defs></defs>
    <g id="Page-1" stroke="none" stroke-width="1" fill="none" fill-rule="evenodd">
        <g id="Clean" transform="translate(0.000000, 1.000000)" fill-rule="nonzero">
            <path d="M2.64334603,54.1586718 L2.64334603,12 L8.5504152,12 L8.5504152,29.5863429 L9.54841319,29.5863429 C10.4295329,29.5863429 11.3780711,29.2986347 12.3940561,28.7232095 C13.4100411,28.1477844 14.4529835,27.3565867 15.5229147,26.3495927 C16.5928458,25.3425987 17.6582654,24.1378204 18.7192055,22.7352216 C19.7801456,21.3326228 20.8140972,19.8041727 21.8210912,18.1498254 L25.516381,12 L31.8010711,12 L27.512377,19.3096609 C26.487401,21.0359364 25.5298719,22.5149366 24.6397612,23.7467061 C23.7496504,24.9784755 22.8730393,26.0573815 22.0099016,26.9834563 C21.1467639,27.9095311 20.2611619,28.7007288 19.3530691,29.3570731 C18.4449763,30.0134174 17.4604746,30.620302 16.3995345,31.1777451 C17.4964387,31.4294936 18.5708492,32.0183965 19.6227983,32.9444713 C20.6747474,33.8705461 21.699708,34.9944065 22.697711,36.3160861 C23.695714,37.6377658 24.653243,39.0897934 25.5703269,40.6722125 C26.4874107,42.2546316 27.3595263,43.8595042 28.1867,45.4868785 C29.0138736,47.1142527 29.7870895,48.6831618 30.506371,50.1936528 C31.2256524,51.7041438 31.8819868,53.0258036 32.475394,54.1586718 L25.8940019,54.1586718 C23.5383552,49.4473785 21.560361,45.7656119 19.9599598,43.1132616 C18.3595586,40.4609114 16.9794581,38.5008989 15.8196168,37.2331654 C14.6597755,35.9654319 13.6393103,35.1922159 12.7581905,34.9134944 C11.8770708,34.6347728 10.9959642,34.4954141 10.1148445,34.4954141 L8.5504152,34.4954141 L8.5504152,54.1586718 L2.64334603,54.1586718 Z M35.6581984,50.463382 C37.8699888,49.9419029 39.6366973,48.9169423 40.9583769,47.3884692 C42.2800565,45.8599962 43.3274944,43.9089746 44.1007219,41.5353459 C44.8739495,39.1617172 45.4448706,36.4015161 45.8135023,33.2546599 C46.182134,30.1078036 46.5372739,26.6553046 46.8789326,22.8970591 L64.5461943,22.8970591 L64.5461943,54.1586718 L58.9628001,54.1586718 L58.9628001,27.8061303 L52.0037871,27.8061303 C51.4823081,32.9669745 50.8259736,37.2331485 50.034764,40.6047802 C49.2435545,43.9764119 48.2680437,46.6646859 47.1082024,48.6696829 C45.9483611,50.6746798 44.5772514,52.1267074 42.9948323,53.0258092 C41.4124131,53.924911 39.5962548,54.4823458 37.5463027,54.6981302 L35.6581984,50.463382 Z M75.254443,54.1586718 L75.254443,22.8970591 L80.8378371,22.8970591 L80.8378371,43.828044 L96.0235903,22.8970591 L99.9346635,22.8970591 L99.9346635,54.1586718 L94.3512693,54.1586718 L94.3512693,32.9579578 L79.0576245,54.1586718 L75.254443,54.1586718 Z M110.642912,54.1586718 L110.642912,22.8970591 L116.226306,22.8970591 L116.226306,35.6552496 L128.687795,35.6552496 L128.687795,22.8970591 L134.271189,22.8970591 L134.271189,54.1586718 L128.687795,54.1586718 L128.687795,40.5643208 L116.226306,40.5643208 L116.226306,54.1586718 L110.642912,54.1586718 Z M0,89.0616285 C0,85.7529339 0.48550768,82.7095201 1.45653761,79.9312956 C2.42756753,77.153071 3.78069542,74.7704871 5.51596186,72.7834721 C7.2512283,70.7964572 9.32362682,69.2410344 11.7332196,68.1171572 C14.1428124,66.99328 16.7681502,66.4313498 19.6093118,66.4313498 C20.7421801,66.4313498 21.8075997,66.494286 22.8056027,66.6201602 C23.8036057,66.7460345 24.7431529,66.9303476 25.6242727,67.173105 C26.5053924,67.4158625 27.3685172,67.7125617 28.2136729,68.0632114 C29.0588286,68.4138611 29.9039716,68.8049645 30.7491272,69.2365333 L28.3755104,74.5501983 C25.9479356,73.41733 23.9249869,72.7115457 22.3066037,72.4328242 C20.6882205,72.1541026 19.3845425,72.0147439 18.3955305,72.0147439 C16.5613629,72.0147439 14.8935541,72.4013519 13.3920541,73.1745794 C11.8905541,73.947807 10.6183442,75.0401993 9.57538611,76.451789 C8.53242804,77.8633788 7.72324858,79.5536648 7.14782344,81.5226978 C6.57239829,83.4917307 6.28469004,85.6720198 6.28469004,88.0636305 C6.28469004,90.2754209 6.52294844,92.3792875 6.99947238,94.3752935 C7.47599633,96.3712994 8.20425785,98.1200262 9.18427879,99.6215261 C10.1642997,101.123026 11.4005461,102.318814 12.8930551,103.208924 C14.3855641,104.099035 16.1208045,104.544084 18.0988284,104.544084 C19.3216068,104.544084 20.4050082,104.44968 21.3490651,104.260868 C22.293122,104.072057 23.1787239,103.80233 24.0058976,103.451681 C24.8330712,103.101031 25.6062871,102.696441 26.3255686,102.237899 C27.04485,101.779357 27.7910933,101.271372 28.5643208,100.713929 L30.9379377,104.867759 C28.8700036,106.863765 26.6402646,108.284324 24.2486538,109.12948 C21.8570431,109.974636 19.2586779,110.397207 16.4534804,110.397207 C13.7202109,110.397207 11.3331315,109.799313 9.29217047,108.603508 C7.25120942,107.407703 5.54294166,105.816316 4.16731593,103.829301 C2.7916902,101.842287 1.75324322,99.5675931 1.05194383,97.005153 C0.350644436,94.442713 0,91.7948979 0,89.0616285 Z M34.5523088,94.6989685 C34.5523088,92.2354296 34.9119441,89.9562408 35.6312255,87.8613336 C36.3505069,85.7664265 37.3709721,83.9637544 38.6926518,82.4532634 C40.0143314,80.9427724 41.6147086,79.7514805 43.4938313,78.8793517 C45.372954,78.007223 47.4723252,77.5711652 49.7920078,77.5711652 C51.1226784,77.5711652 52.4128701,77.7554783 53.6626216,78.12411 C54.9123731,78.4927417 56.0182517,79.045681 56.9802906,79.7829445 C57.9423295,80.520208 58.7065546,81.4687461 59.2729887,82.6285874 C59.8394228,83.7884287 60.1226356,85.1415566 60.1226356,86.6880117 C60.1226356,87.9827182 59.9563043,89.2549282 59.6236366,90.5046797 C59.290969,91.7544311 58.8369294,92.8378325 58.2615042,93.7549163 L40.3514863,93.7549163 L40.3514863,94.6989685 C40.3514863,98.1695014 41.1876384,100.740894 42.8599677,102.413223 C44.532297,104.085553 46.7350633,104.921705 49.4683328,104.921705 C50.9788237,104.921705 52.3858969,104.589042 53.6895945,103.923707 C54.9932921,103.258371 56.2744929,102.43121 57.5332354,101.442198 L59.9068523,105.649973 C58.3963613,107.1245 56.6386436,108.248361 54.6336467,109.021588 C52.6286497,109.794816 50.5742329,110.181424 48.4703348,110.181424 C46.04276,110.181424 43.9523797,109.754357 42.1991312,108.90021 C40.4458827,108.046063 39.0118369,106.913212 37.8969507,105.501622 C36.7820645,104.090033 35.9459123,102.453692 35.3884692,100.592551 C34.8310261,98.7314105 34.5523088,96.7669026 34.5523088,94.6989685 Z M40.8639717,89.4122764 L54.3234581,89.4122764 C54.3953862,88.9986896 54.4718088,88.5896045 54.5527279,88.1850087 C54.6336471,87.7804128 54.674106,87.4162821 54.674106,87.0926054 C54.674106,85.6540426 54.1571303,84.4987141 53.1231632,83.6265854 C52.0891962,82.7544567 50.6461595,82.3183989 48.7940098,82.3183989 C47.6071954,82.3183989 46.5462712,82.5251892 45.6112054,82.938776 C44.6761395,83.3523628 43.8714555,83.8873203 43.1971292,84.5436646 C42.5228028,85.2000089 41.9833499,85.9507477 41.5787541,86.7959033 C41.1741583,87.641059 40.9358999,88.5131747 40.8639717,89.4122764 Z M67.2434861,127.632902 L67.2434861,78.1375965 L72.260449,78.1375965 L72.6920157,84.8808261 C73.87883,82.1835208 75.4297574,80.2729581 77.3448442,79.1490809 C79.2599309,78.0252037 81.4671927,77.4632735 83.9666957,77.4632735 C85.4771867,77.4632735 86.8797644,77.7240091 88.174471,78.2454881 C89.4691775,78.7669672 90.5930379,79.5401831 91.5460858,80.5651591 C92.4991337,81.5901352 93.2408815,82.8758314 93.7713516,84.4222865 C94.3018216,85.9687416 94.5670527,87.7579273 94.5670527,89.7898973 C94.5670527,92.7029871 94.2209037,95.400252 93.5285953,97.8817729 C92.836287,100.363294 91.8517853,102.51661 90.5750607,104.341787 C89.2983362,106.166964 87.7608952,107.596514 85.9626917,108.630481 C84.1644881,109.664448 82.1595212,110.181424 79.9477308,110.181424 C78.6170602,110.181424 77.3538411,109.98812 76.1580357,109.601506 C74.9622304,109.214892 73.8248837,108.581035 72.7459615,107.699915 L72.7459615,127.632902 L67.2434861,127.632902 Z M72.7459615,102.38625 C73.7709376,103.411226 74.7464484,104.134992 75.6725232,104.55757 C76.598598,104.980148 77.5830997,105.191434 78.6260578,105.191434 C80.1005847,105.191434 81.4447217,104.845285 82.6585091,104.152976 C83.8722965,103.460668 84.9107435,102.467176 85.7738812,101.172469 C86.6370189,99.8777624 87.3068397,98.3178442 87.7833637,96.4926676 C88.2598876,94.667491 88.498146,92.6130742 88.498146,90.3293557 C88.498146,89.3043796 88.3992463,88.3063916 88.2014439,87.3353617 C88.0036415,86.3643318 87.661988,85.5101979 87.176473,84.7729344 C86.690958,84.035671 86.079578,83.4332818 85.3423145,82.9657489 C84.6050511,82.498216 83.7059628,82.264453 82.6450227,82.264453 C81.5840826,82.264453 80.4916903,82.5611522 79.367813,83.1545593 C78.2439358,83.7479665 77.2009934,84.6335685 76.2389545,85.8113918 C75.2769156,86.9892151 74.476727,88.4547291 73.8383647,90.2079775 C73.2000025,91.961226 72.8358717,93.997661 72.7459615,96.3173436 L72.7459615,102.38625 Z M99.3142864,97.6929625 C99.3142864,94.923729 99.5795174,92.3163729 100.109987,89.8708161 C100.640458,87.4252592 101.508078,85.2809336 102.712874,83.437775 C103.917671,81.5946163 105.473093,80.1380933 107.379189,79.0681622 C109.285285,77.998231 111.604933,77.4632735 114.338202,77.4632735 C117.179364,77.4632735 119.418094,78.1016262 121.054459,79.3783507 C122.690824,80.6550753 123.508994,82.4712336 123.508994,84.8268803 C123.508994,86.6610479 122.884128,88.2614251 121.634377,89.6280598 C120.384625,90.9946945 118.465072,92.0646096 115.875658,92.8378371 C118.519018,93.1974778 120.434076,94.105557 121.62089,95.5621019 C122.807704,97.0186468 123.401103,98.8168234 123.401103,100.956686 C123.401103,102.359284 123.104404,103.618008 122.510996,104.732894 C121.917589,105.84778 121.049969,106.8143 119.90811,107.632483 C118.76625,108.450666 117.38615,109.080027 115.767767,109.520587 C114.149384,109.961147 112.315243,110.181424 110.265291,110.181424 C108.161393,110.181424 106.30028,109.947661 104.681897,109.480128 C103.063514,109.012595 101.606991,108.266352 100.312284,107.241376 C100.024572,105.5151 99.7863134,103.87876 99.597502,102.332304 C99.4086906,100.785849 99.3142864,99.2394175 99.3142864,97.6929625 Z M105.16741,97.1265312 C105.16741,98.52913 105.212364,99.8867533 105.302274,101.199442 C105.392184,102.51213 105.536039,103.644982 105.733841,104.59803 C106.291284,104.885742 106.992573,105.141982 107.837729,105.366758 C108.682884,105.591533 109.546009,105.703919 110.427129,105.703919 C111.380177,105.703919 112.279265,105.582542 113.124421,105.339785 C113.969576,105.097027 114.71582,104.755374 115.363173,104.314814 C116.010526,103.874254 116.518511,103.339297 116.887143,102.709925 C117.255775,102.080554 117.440088,101.379265 117.440088,100.606038 C117.440088,99.6170257 117.264765,98.7898645 116.914116,98.1245292 C116.563466,97.4591938 116.091445,96.9422181 115.498038,96.5735863 C114.90463,96.2049546 114.212332,95.9487144 113.421123,95.8048582 C112.629913,95.6610019 111.811743,95.5890748 110.966587,95.5890748 C109.905647,95.5890748 108.885182,95.6610019 107.905161,95.8048582 C106.92514,95.9487144 106.012565,96.1015595 105.16741,96.2633978 L105.16741,97.1265312 Z M105.491085,92.0556225 C109.573007,91.7679099 112.665871,90.994694 114.769769,89.7359515 C116.873667,88.477209 117.9256,86.9667406 117.9256,85.2045011 C117.9256,84.2514533 117.610919,83.4872282 116.981548,82.9118031 C116.352177,82.3363779 115.507034,82.0486697 114.446094,82.0486697 C113.043495,82.0486697 111.829726,82.3094053 110.80475,82.8308843 C109.779774,83.3523633 108.907658,84.071634 108.188377,84.9887178 C107.469095,85.9058016 106.898174,86.9712212 106.475596,88.1850087 C106.053018,89.3987961 105.724851,90.6889878 105.491085,92.0556225 Z M130.737737,109.399209 L130.737737,78.1375965 L136.321131,78.1375965 L136.321131,99.0685813 L151.506884,78.1375965 L155.417957,78.1375965 L155.417957,109.399209 L149.834563,109.399209 L149.834563,88.1984951 L134.540918,109.399209 L130.737737,109.399209 Z M163.078266,94.3752935 C163.078266,91.9117546 163.446892,89.6370612 164.184156,87.5511451 C164.921419,85.4652289 165.950875,83.6760432 167.272555,82.1835343 C168.594234,80.6910253 170.158648,79.5312014 171.965843,78.7040278 C173.773037,77.8768541 175.764518,77.4632735 177.940344,77.4632735 C179.774512,77.4632735 181.38388,77.6745592 182.768497,78.0971371 C184.153113,78.5197149 185.528718,79.0996269 186.895353,79.8368903 L184.73752,84.8808261 C182.831424,83.9637423 181.26701,83.3928212 180.044232,83.1680458 C178.821453,82.9432703 177.841447,82.8308843 177.104184,82.8308843 C174.604681,82.8308843 172.626686,83.8063951 171.170142,85.757446 C169.713597,87.7084968 168.985335,90.3383301 168.985335,93.6470247 C168.985335,95.1575157 169.151667,96.5780752 169.484334,97.9087458 C169.817002,99.2394165 170.315996,100.39924 170.981331,101.388252 C171.646666,102.377264 172.464837,103.168462 173.435867,103.761869 C174.406897,104.355276 175.55773,104.651975 176.8884,104.651975 C177.76952,104.651975 178.551727,104.589039 179.235044,104.463165 C179.918362,104.337291 180.552219,104.152978 181.136635,103.91022 C181.721051,103.667463 182.291972,103.370764 182.849415,103.020114 C183.406858,102.669464 183.982275,102.26937 184.575682,101.819819 L186.895353,105.865757 C185.27697,107.448176 183.564207,108.563045 181.757012,109.210399 C179.949818,109.857752 177.940355,110.181424 175.728565,110.181424 C173.552739,110.181424 171.673644,109.745366 170.091225,108.873237 C168.508806,108.001109 167.200632,106.832294 166.166665,105.366758 C165.132698,103.901222 164.359482,102.219927 163.846994,100.322822 C163.334506,98.4257173 163.078266,96.4432276 163.078266,94.3752935 Z" id="Клин-Сервис" fill="#FFFFFF"></path>
            <path d="M204.538725,0.943161974 C204.444916,0.600516775 204.211456,0.312223408 203.894453,0.14811254 C203.268942,-0.180812778 202.493515,0.0564707804 202.162352,0.678086864 C202.161467,0.679669927 202.160582,0.68125299 202.159874,0.682836053 C202.159874,0.718015232 195.667593,13.2347669 175.737634,15.415876 C173.13789,15.6915049 170.596732,16.3655379 168.204606,17.4140533 C163.922851,19.2639504 160.38661,22.4835488 158.158208,26.5606397 C156.077775,30.390421 155.216149,34.7575642 155.687317,39.0844273 C156.03441,42.2385924 157.09445,45.2740278 158.78832,47.9636519 C155.248363,50.4895169 144.019619,59.220989 143.007191,68.5927222 C142.932852,69.2920842 143.443314,69.9189772 144.147057,69.9928535 C144.850978,70.0667298 145.481621,69.559446 145.55596,68.8600839 C146.483429,60.4944753 157.018341,52.3821567 160.303421,50.0321876 C164.246934,54.8446992 170.151582,57.5605318 176.488105,58.0037895 C180.752868,58.2773076 185.022765,57.5545513 188.955834,55.8930387 C193.225376,54.1127964 196.996138,51.3288921 199.943861,47.7807202 C207.540608,38.6341338 211.158445,23.2608328 204.538725,0.943161974 Z M161.039733,46.7042373 C160.551218,45.9396179 160.120583,45.1399952 159.751188,44.3120532 C158.973814,42.5648793 158.472379,40.7091776 158.264406,38.8100297 C157.830761,34.9992452 158.57132,31.147301 160.38838,27.7637676 C162.352349,24.1765468 165.467688,21.3456783 169.238273,19.7218074 C171.39393,18.7890315 173.681804,18.193448 176.020831,17.9558127 C189.175311,16.5486455 196.913657,10.7300094 200.906729,6.50850801 C198.560622,14.1844289 194.521354,21.2438346 189.083272,27.1727574 L188.304482,19.3770515 C188.264834,18.6748751 187.659856,18.1375131 186.95328,18.1769138 C186.246705,18.2163145 185.705976,18.8175267 185.745624,19.5197031 C185.747571,19.5543546 185.750934,19.589006 185.755713,19.6233057 L186.753981,29.6423358 C180.799773,35.6439036 172.523353,41.6736148 161.039733,46.7042373 Z M197.961485,46.1484063 L197.961485,46.1554421 C195.283153,49.3959722 191.852404,51.9410098 187.964646,53.571213 C184.389466,55.0726603 180.509142,55.71855 176.636783,55.4568169 C171.24596,55.1854096 166.187184,52.7868932 162.583154,48.7938805 C166.806677,46.9365958 170.890371,44.780464 174.803086,42.3420192 L186.053069,44.4527699 C186.752211,44.5616495 187.407811,44.0865547 187.517372,43.3917659 C187.62304,42.7216025 187.18143,42.0866184 186.513264,41.9480124 L177.868688,40.3227344 C181.860167,37.5984588 185.575706,34.4951275 188.962914,31.0565387 C189.02504,31.0034182 189.081856,30.9444931 189.132832,30.8806429 C198.067683,21.6355548 201.869597,12.4889683 203.455498,6.86029979 C207.830885,25.4067627 204.482086,38.3104853 197.961485,46.1484063 Z" id="Shape" stroke="#82E311" fill="#82E311"></path>
        </g>
    </g>
</svg>