<?xml version="1.0" encoding="UTF-8"?>
<svg width="488px" height="412px" viewBox="0 0 488 412" version="1.1" xmlns="http://www.w3.org/2000/svg" xmlns:xlink="http://www.w3.org/1999/xlink">
    <!-- Generator: Sketch 50.2 (55047) - http://www.bohemiancoding.com/sketch -->
    <title>Group</title>
    <desc>Created with Sketch.</desc>
    <defs></defs>
    <g id="Page-1" stroke="none" stroke-width="1" fill="none" fill-rule="evenodd">
        <g id="Group">
            <path d="M98.9745329,300.632558 C84.2935555,272.296191 76,240.116628 76,206 C76,92.2293415 168.229342,0 282,0 C395.770658,0 488,92.2293415 488,206 C488,319.770658 395.770658,412 282,412 C276.858304,412 271.760606,411.811626 266.713429,411.441402 C265.202002,411.806536 263.623594,412 262,412 L20,412 C8.954305,412 -1.28581472e-14,403.045695 -1.42108547e-14,392 L3.55271368e-15,320.632558 C2.20000618e-15,309.586863 8.954305,300.632558 20,300.632558 L98.9745329,300.632558 Z M282,351 C362.081289,351 427,286.081289 427,206 C427,125.918711 362.081289,61 282,61 C201.918711,61 137,125.918711 137,206 C137,286.081289 201.918711,351 282,351 Z" id="Combined-Shape" fill="#24B55D"></path>
            <path d="M289.496297,222.369572 C272.167669,271.604963 246.010216,314.101957 223.716011,310.905617 C176.011052,297.265398 142.961071,199.711156 169.342253,161.527886 C179.184225,149.61123 196.893256,187.166478 264.085955,207.770338 C264.029098,207.187915 264,206.597356 264,206 C264,205.346505 264.034825,204.701143 264.10272,204.06567 C228.781524,166.620755 203.573721,124.827579 216.385728,106.637746 C250.19685,70.3248456 352.122693,85.1657963 374.16743,126.006444 C380.328617,140.212338 338.659594,138.91007 289.677447,189.714745 C290.346612,190.030767 290.993165,190.386818 291.614017,190.77981 C343.21334,181.989442 393.292073,184.223102 401.324896,205.324098 C412.522715,253.660705 343.2228,329.862105 297.037109,325.300219 C281.924179,322.484655 305.846284,289.132541 291.778759,221.114654 C291.052343,221.585591 290.289836,222.005584 289.496297,222.369572 Z" id="Combined-Shape" fill="#FFB731"></path>
        </g>
    </g>
</svg>