<?xml version="1.0" encoding="UTF-8"?>
<svg width="47px" height="25px" viewBox="0 0 47 25" version="1.1" xmlns="http://www.w3.org/2000/svg" xmlns:xlink="http://www.w3.org/1999/xlink">
    <!-- Generator: Sketch 50.2 (55047) - http://www.bohemiancoding.com/sketch -->
    <title>key</title>
    <desc>Created with Sketch.</desc>
    <defs></defs>
    <g id="Page-1" stroke="none" stroke-width="1" fill="none" fill-rule="evenodd">
        <g id="key" transform="translate(20.000000, 13.000000) scale(-1, 1) rotate(-315.000000) translate(-20.000000, -13.000000) translate(1.000000, -6.000000)" fill="#FFFFFF" fill-rule="nonzero">
            <circle id="Oval" cx="27.5" cy="10.5" r="2.5"></circle>
            <path d="M37.590004,12.3138162 C36.7973511,10.2949951 35.3438573,7.38212895 32.9205512,4.96969936 C30.5058544,2.56558439 27.6246206,1.15328563 25.6327463,0.39175489 C23.4459744,-0.444236299 20.961067,0.0827031787 19.302285,1.7341217 L13.4733176,7.53728583 C11.7454383,9.2574485 11.2474326,11.9043209 12.2340182,14.1236581 C12.5399466,14.8119904 12.8726678,15.4852525 13.2281741,16.1357236 L0.434771586,28.9323797 C0.15637824,29.2108455 0,29.5884929 0,29.9823241 L0,36.5152452 C0,37.3352753 0.664551857,38 1.48436868,38 L8.01559086,38 C8.83540768,38 9.49995954,37.3352753 9.49995954,36.5152452 L9.49995954,33.8426866 L12.1718232,33.8426123 C12.99164,33.8426123 13.6561918,33.1778876 13.6561918,32.3578575 L13.6561918,29.6853731 L16.3280555,29.6853731 C17.1478723,29.6853731 17.8124241,29.0206484 17.8124241,28.2006183 C17.8124241,27.3805883 17.1478723,26.7158635 16.3280555,26.7158635 L12.1718232,26.7158635 C11.3520063,26.7158635 10.6874545,27.3805883 10.6874545,28.2006183 L10.6874545,30.8731027 L8.01559086,30.873177 C7.19577404,30.873177 6.53122218,31.5379017 6.53122218,32.3579318 L6.53122218,35.0304904 L2.96873736,35.0304904 L2.96873736,30.5973095 L16.1317477,17.4309494 C16.615355,16.9472163 16.7059757,16.1957077 16.3512858,15.6108627 C15.8368779,14.7627708 15.3643291,13.8564765 14.9468504,12.9171464 C14.457083,11.8153841 14.7066053,10.4992232 15.5677618,9.64185151 L21.396655,3.83876163 C22.2288663,3.01034269 23.4755875,2.74613057 24.5730555,3.1655738 C26.296556,3.82450798 28.7804985,5.03740417 30.8264039,7.07433928 C32.8848521,9.12359785 34.1380304,11.6449342 34.8267775,13.399172 C35.2565764,14.4940302 34.9954017,15.7378835 34.1614092,16.5681584 L28.2620828,22.441403 C27.4030044,23.2965475 26.1208067,23.5465802 24.9952842,23.0783628 C24.0670342,22.692178 23.1680263,22.2333888 22.3234205,21.7148382 C21.6248024,21.2858925 20.7107282,21.5047454 20.2818941,22.2036195 C19.85306,22.9024936 20.0717817,23.8168056 20.770474,24.2457512 C21.7465949,24.8449983 22.7844655,25.3746845 23.8551406,25.820111 C26.0922326,26.750978 28.644085,26.2506899 30.3563043,24.5461171 L36.2556307,18.6729468 C37.9288853,17.0071262 38.4526448,14.5110306 37.590004,12.3138162 Z" id="Shape"></path>
        </g>
    </g>
</svg>