<svg width="50px" height="60px" viewBox="0 0 50 60" version="1.1" xmlns="http://www.w3.org/2000/svg" xmlns:xlink="http://www.w3.org/1999/xlink">
            <g id="Page-1" stroke="none" stroke-width="1" fill="none" fill-rule="evenodd">
                <g id="Desktop" transform="translate(-1314.000000, -22.000000)">
                    <g id="Герб" transform="translate(1314.000000, 22.000000)">
                        <path d="M0,0 L50,0 C50,31.0140225 50,46.5210338 50,46.5210338 C48.9013786,60.7089989 33.260506,49.4508344 25,59.5238095 C16.4558241,49.6258497 0.635806374,60.4407392 0,46.5210338 C6.43506955e-14,46.5210338 6.43506955e-14,31.0140225 0,0 Z" id="Path-2-Copy" fill="#E61E26"></path>
                        <path d="M12.905581,12.9392309 C14.350367,14.6123498 14.7534409,17.9418037 13.200221,19.4289718 C11.5643723,20.995255 8.91229742,20.9954082 7.27664605,19.429314 C5.69350214,17.9134943 6.02300937,14.4830291 7.52910706,12.8441108 L8.21655207,12.1949181 C8.21847517,12.1931021 8.22038468,12.1912728 8.22228045,12.1894306 C8.44183805,11.9760718 8.43918118,11.6326927 8.21634616,11.4224719 L6.3691329,9.67982578 C6.14820681,9.47140589 5.79330257,9.47186232 5.57296204,9.68084972 L3.73564787,11.4234955 C3.73444959,11.4246321 3.73325662,11.4257737 3.732069,11.4269205 C3.51180014,11.6396061 3.51331051,11.9829916 3.73544249,12.1938934 L4.62175414,13.0353962 C2.93637597,15.821826 2.73111491,19.5307971 5.05193379,21.7529216 C7.91610484,24.4952919 12.5601238,24.4950236 15.4246405,21.7523224 C17.7689657,19.5076912 17.5349499,15.7466058 15.8026494,12.9513848 L16.6006822,12.1939783 C16.6020947,12.1926378 16.6034997,12.1912901 16.6048974,12.1899353 C16.8247381,11.976844 16.8225372,11.6334619 16.5999815,11.4229701 L14.7597269,9.68246848 C14.5392714,9.47396306 14.1847457,9.47377797 13.9640529,9.68205306 L12.11978,11.4225544 C12.1180703,11.4241679 12.1163713,11.4257918 12.1146831,11.4274261 C11.8946979,11.6403806 11.8966657,11.983764 12.1190786,12.1943942 L12.905581,12.9392309 Z" id="Combined-Shape" fill="#FFFFFF" fill-rule="nonzero"></path>
                        <path d="M42.4293906,12.9392309 C43.8741765,14.6123498 44.2772504,17.9418037 42.7240305,19.4289718 C41.0881818,20.995255 38.4361069,20.9954082 36.8004556,19.429314 C35.2173117,17.9134943 35.5468189,14.4830291 37.0529166,12.8441108 L37.7403616,12.1949181 C37.7422847,12.1931021 37.7441942,12.1912728 37.74609,12.1894306 C37.9656476,11.9760718 37.9629907,11.6326927 37.7401557,11.4224719 L35.8929424,9.67982578 C35.6720163,9.47140589 35.3171121,9.47186232 35.0967716,9.68084972 L33.2594574,11.4234955 C33.2582591,11.4246321 33.2570661,11.4257737 33.2558785,11.4269205 C33.0356097,11.6396061 33.03712,11.9829916 33.259252,12.1938934 L34.1455637,13.0353962 C32.4601855,15.821826 32.2549244,19.5307971 34.5757433,21.7529216 C37.4399144,24.4952919 42.0839333,24.4950236 44.94845,21.7523224 C47.2927752,19.5076912 47.0587594,15.7466058 45.3264589,12.9513848 L46.1244917,12.1939783 C46.1259042,12.1926378 46.1273093,12.1912901 46.1287069,12.1899353 C46.3485476,11.976844 46.3463467,11.6334619 46.123791,11.4229701 L44.2835364,9.68246848 C44.063081,9.47396306 43.7085552,9.47377797 43.4878624,9.68205306 L41.6435896,11.4225544 C41.6418798,11.4241679 41.6401808,11.4257918 41.6384927,11.4274261 C41.4185074,11.6403806 41.4204753,11.983764 41.6428881,12.1943942 L42.4293906,12.9392309 Z" id="Combined-Shape-Copy" fill="#FFFFFF" fill-rule="nonzero"></path>
                        <g id="Башня" transform="translate(13.809524, 3.809524)">
                            <path d="M0.258654067,23.39752 C4.52312813,19.1074837 6.67318235,16.9383664 6.70881673,16.8901681 L6.70881676,11.719385 C6.20742459,11.7195255 6.12182338,11.0950637 6.47177231,10.9302867 L7.63715171,10.1813797 L10.5633631,4.60993514 C10.8459959,4.05865449 11.5452458,4.06575813 11.8191443,4.60993514 L14.7321325,10.1813797 L15.9021575,10.9297726 C16.2329118,11.1130597 16.1817996,11.719385 15.6624867,11.7195255 C15.6622842,15.1789275 15.6619834,16.9116682 15.6615844,16.9177476 C15.7065612,16.9340298 17.8566898,19.0936246 22.1119701,23.396532 C22.4223126,23.700511 22.3702831,24.2152451 21.9168895,24.2152451 L20.5893072,24.2152451 L20.5893072,26.8019279 C20.5893072,27.0724105 20.4573644,27.3272005 20.2329704,27.4900369 L18.7773013,28.5326916 L18.7773013,44.8978155 L19.6726683,44.8978155 C19.919917,44.8978155 20.1203518,45.0907302 20.1203518,45.3287024 L20.1203518,45.7595893 C20.1203518,45.9975616 19.919917,46.1904762 19.6726683,46.1904762 L2.67966526,46.1904762 C2.43241649,46.1904762 2.23198176,45.9975616 2.23198176,45.7595893 L2.23198176,45.3287024 C2.23198176,45.0907302 2.43241649,44.8978155 2.67966526,44.8978155 L3.57503226,44.8978155 L3.56860883,28.5326916 L2.13893713,27.4900796 C1.91554267,27.3271655 1.78429827,27.0729679 1.78429827,26.8032058 L1.78429827,24.2152451 L0.455840892,24.2152451 C0.0218109896,24.2152451 -0.0981353893,23.6858346 0.258654067,23.39752 Z M9.85324948,29.3385966 C9.6200295,29.3385966 9.43096736,29.5211331 9.43096736,29.7463033 L9.43096736,31.5130326 C9.43096736,31.7382029 9.6200295,31.9207394 9.85324948,31.9207394 L12.5277029,31.9207394 C12.7609229,31.9207394 12.949985,31.7382029 12.949985,31.5130326 L12.949985,29.7463033 C12.949985,29.5211331 12.7609229,29.3385966 12.5277029,29.3385966 L9.85324948,29.3385966 Z M8.86792453,24.5820176 C8.63470455,24.5820176 8.44564241,24.7645542 8.44564241,24.9897244 L8.44564241,26.348747 C8.44564241,26.5739172 8.63470455,26.7564537 8.86792453,26.7564537 L13.3722671,26.7564537 C13.6054871,26.7564537 13.7945493,26.5739172 13.7945493,26.348747 L13.7945493,24.9897244 C13.7945493,24.7645542 13.6054871,24.5820176 13.3722671,24.5820176 L8.86792453,24.5820176 Z M14.2168314,29.3385966 C13.9836114,29.3385966 13.7945493,29.5211331 13.7945493,29.7463033 L13.7945493,31.5130326 C13.7945493,31.7382029 13.9836114,31.9207394 14.2168314,31.9207394 L16.8912848,31.9207394 C17.1245048,31.9207394 17.3135669,31.7382029 17.3135669,31.5130326 L17.3135669,29.7463033 C17.3135669,29.5211331 17.1245048,29.3385966 16.8912848,29.3385966 L14.2168314,29.3385966 Z M5.34890686,29.3385966 C5.11568688,29.3385966 4.92662474,29.5211331 4.92662474,29.7463033 L4.92662474,31.5130326 C4.92662474,31.7382029 5.11568688,31.9207394 5.34890686,31.9207394 L8.02336029,31.9207394 C8.25658026,31.9207394 8.44564241,31.7382029 8.44564241,31.5130326 L8.44564241,29.7463033 C8.44564241,29.5211331 8.25658026,29.3385966 8.02336029,29.3385966 L5.34890686,29.3385966 Z M8.02336029,11.8072057 C7.79014031,11.8072057 7.60107817,11.9897422 7.60107817,12.2149124 L7.60107817,13.8653991 L14.7798742,13.8653991 L14.7798742,12.2149124 C14.7798742,11.9897422 14.5908121,11.8072057 14.3575921,11.8072057 L8.02336029,11.8072057 Z M7.60107817,14.5810286 L7.60107817,16.1560778 C7.60107817,16.3812481 7.79014031,16.5637846 8.02336029,16.5637846 L14.3575921,16.5637846 C14.5908121,16.5637846 14.7798742,16.3812481 14.7798742,16.1560778 L14.7798742,14.5810286 L7.60107817,14.5810286 Z" id="Combined-Shape" fill="#FFE300"></path>
                            <path d="M6.71428571,43.9294039 L15.6666667,43.9294039 L15.6666667,38.4311677 C15.6666667,37.2538573 13.6091051,35.7464757 11.2464286,35.7464757 C8.88375207,35.7464757 6.71428571,37.2685461 6.71428571,38.6465079 L6.71428571,43.9294039 Z M11.2464286,34.8851149 C13.9576331,34.8851149 16.5698985,36.5274366 16.5698985,38.3009167 L16.5698985,44.3600844 C16.5698985,44.5979426 16.3677032,44.7907648 16.1182826,44.7907648 L6.2626698,44.7907648 C6.01324922,44.7907648 5.81105389,44.5979426 5.81105389,44.3600844 L5.81105389,38.516248 C5.81105389,36.5137425 8.5352239,34.8851149 11.2464286,34.8851149 Z" id="Rectangle-3-Copy-3" fill="#E61E26" fill-rule="nonzero"></path>
                            <path d="M10.7428571,4.62981463 L11.6380952,4.62981463 L11.6380952,2.31333685 C13.7416409,1.80568282 16.7422657,3.10498287 17.9047619,1.27216264 C15.8670528,1.3324768 12.7335945,-0.549950553 10.7430368,0.161596133 C10.7430368,0.161860434 10.7429769,1.6512666 10.7428571,4.62981463 Z" id="Combined-Shape" fill="#FFE300"></path>
                        </g>
                    </g>
                </g>
            </g>
        </svg>
