<?xml version="1.0" encoding="UTF-8"?>
<svg width="722px" height="374px" viewBox="0 0 722 374" version="1.1" xmlns="http://www.w3.org/2000/svg" xmlns:xlink="http://www.w3.org/1999/xlink">
    <!-- Generator: Sketch 50.2 (55047) - http://www.bohemiancoding.com/sketch -->
    <title>livingroom</title>
    <desc>Created with Sketch.</desc>
    <defs></defs>
    <g id="Page-1" stroke="none" stroke-width="1" fill="none" fill-rule="evenodd">
        <g id="livingroom" transform="translate(20.000000, 0.000000)" fill-rule="nonzero">
            <path d="M636.333333,374 C626.231667,374 618,365.874902 618,355.904013 L618,337.808025 L636.333333,337.808025 C665.556667,337.808025 673,328 673,328 L673,355.904013 C673,365.874902 664.768333,374 654.666667,374 L636.333333,374 Z" id="Shape-Copy-4" fill="#FFB731"></path>
            <path d="M29.3333333,374 C19.2316667,374 11,365.874902 11,355.904013 L11,328 C11,328 18.4433333,337.808025 47.6666667,337.808025 L66,337.808025 L66,355.904013 C66,365.874902 57.7683333,374 47.6666667,374 L29.3333333,374 Z" id="Shape-Copy-3" fill="#FFB731"></path>
            <g id="Group" transform="translate(12.000000, 0.000000)">
                <path d="M0.846315789,248.895597 C0.540701754,248.49501 0.305614035,248.023732 0,247.611363 L0,249.708553 C0.999122807,248.683522 2.1745614,247.858784 3.2677193,246.951572 C2.46842105,247.623145 1.58684211,248.176897 0.846315789,248.895597 Z" id="Shape" fill="#DD352E"></path>
                <path d="M611.22807,107.676897 L352.631579,107.676897 C280.142281,107.676897 270.221579,85.9391614 243.080702,54.5755556 C190.703158,-5.96020964 99.6654386,-18.7907757 39.0363158,33.4269182 C36.5678947,35.5594549 34.2287719,37.7626834 32.0189474,40.0012579 C10.5554386,61.8803774 0,92.2660797 0,122.946331 L0,177.814969 C10.7082456,163.393836 27.7050877,153.932914 47.0175439,153.932914 C79.4714035,153.932914 105.789474,180.312746 105.789474,212.842767 C105.789474,221.58499 103.767719,229.820587 100.358947,237.278574 L29.3859649,237.278574 C26.5649123,237.278574 23.814386,237.584906 21.1461404,238.126876 C23.814386,237.584906 26.5649123,237.278574 29.3859649,237.278574 L628.859649,237.278574 C651.580877,237.278574 670,255.740922 670,278.515472 C670,250.615765 670,196.383354 670,166.586751 C670,134.05673 643.68193,107.676897 611.22807,107.676897 Z" id="Shape" fill="#24B55D"></path>
                <path d="M9.89719298,242.439078 C8.7922807,243.039958 7.64035088,243.570147 6.59421053,244.277065 C7.64035088,243.581929 8.7922807,243.05174 9.89719298,242.439078 Z" id="Shape" fill="#DD352E"></path>
                <path d="M17.9607018,239.10478 C16.4678947,239.540713 14.9398246,239.917736 13.5175439,240.518616 C14.9280702,239.917736 16.4561404,239.540713 17.9607018,239.10478 Z" id="Shape" fill="#DD352E"></path>
            </g>
            <path d="M41.3,247.378412 C33.1136235,247.378412 25.4329141,250.566892 19.5898281,256.19953 L11.6023445,263.899332 L4.77049498,255.157898 C-4.72046131,243.014104 -10,228.378419 -10,212.933002 C-10,174.864806 20.8998944,144 59,144 C97.1001056,144 128,174.864806 128,212.933002 C128,222.839161 125.789816,232.495124 121.637935,241.547388 L118.963496,247.378412 L41.3,247.378412 Z" id="Shape" stroke="#FFFFFF" stroke-width="20" fill="#FFB731"></path>
            <path d="M640.844828,328 L41.1551724,328 C12.8841472,328 -10,304.924113 -10,276.5 C-10,248.075887 12.8841472,225 41.1551724,225 L640.844828,225 C669.115853,225 692,248.075887 692,276.5 C692,304.924113 669.115853,328 640.844828,328 Z" id="Shape" stroke="#FFFFFF" stroke-width="20" fill="#24B55D"></path>
        </g>
    </g>
</svg>