<?xml version="1.0" encoding="UTF-8"?>
<svg width="351px" height="375px" viewBox="0 0 351 375" version="1.1" xmlns="http://www.w3.org/2000/svg" xmlns:xlink="http://www.w3.org/1999/xlink">
    <!-- Generator: Sketch 50.2 (55047) - http://www.bohemiancoding.com/sketch -->
    <title>sofa-min</title>
    <desc>Created with Sketch.</desc>
    <defs></defs>
    <g id="Page-1" stroke="none" stroke-width="1" fill="none" fill-rule="evenodd">
        <g id="sofa-min" fill-rule="nonzero">
            <path d="M264.333333,375 C254.231667,375 246,366.874902 246,356.904013 L246,338.808025 L264.333333,338.808025 C293.556667,338.808025 301,329 301,329 L301,356.904013 C301,366.874902 292.768333,375 282.666667,375 L264.333333,375 Z" id="Shape-Copy-2" fill="#FFB731"></path>
            <path d="M69.3333333,375 C59.2316667,375 51,366.874902 51,356.904013 L51,329 C51,329 58.4433333,338.808025 87.6666667,338.808025 L106,338.808025 L106,356.904013 C106,366.874902 97.7683333,375 87.6666667,375 L69.3333333,375 Z" id="Shape-Copy" fill="#FFB731"></path>
            <path d="M314.444049,165 C282.187939,165 255.94283,191.193138 255.94283,223.385374 L255.94283,234.048002 C242.992123,229.42826 217.938976,223.385374 175.503655,223.385374 C133.068334,223.385374 108.0225,229.42826 95.0644798,234.048002 L95.0644798,223.385374 C95.0644798,191.193138 68.8193708,165 36.5632615,165 C16.4022791,165 0,181.369799 0,201.490858 C0,216.25506 8.83368397,229.501241 22.5156564,235.186517 C26.6107417,236.894289 29.2506092,240.857197 29.2506092,245.279889 L36.5632615,274.472575 C36.5632615,300.673012 56.4463631,322.312091 81.9455816,325.209465 C269.076354,325.209465 81.9455816,325.209465 269.076354,325.209465 C294.553634,322.312091 314.436736,300.673012 314.436736,274.472575 L321.749388,245.279889 C321.749388,240.857197 324.389256,236.908886 328.484341,235.186517 C342.166314,229.50854 350.999998,216.25506 350.999998,201.490858 C351.00731,181.369799 334.605031,165 314.444049,165 Z" id="Shape" fill="#24B55D"></path>
            <path d="M115.273358,206 C130.464151,203.227947 150.239192,201.170792 175.49635,201.170792 C200.753508,201.170792 220.528549,203.227947 235.719343,206 C241.456951,179.592549 260.268424,158.043486 285,148.363186 L285,109.423138 C285,48.9923864 235.974834,0 175.49635,0 C115.025166,0 66,48.9923864 66,109.423138 L66,148.370481 C90.7242759,158.050781 109.535749,179.599844 115.273358,206 Z" id="Shape" fill="#24B55D"></path>
        </g>
    </g>
</svg>