<?xml version="1.0" encoding="UTF-8"?>
<svg width="472px" height="346px" viewBox="0 0 472 346" version="1.1" xmlns="http://www.w3.org/2000/svg" xmlns:xlink="http://www.w3.org/1999/xlink">
    <!-- Generator: Sketch 50.2 (55047) - http://www.bohemiancoding.com/sketch -->
    <title>sofa</title>
    <desc>Created with Sketch.</desc>
    <defs></defs>
    <g id="Page-1" stroke="none" stroke-width="1" fill="none" fill-rule="evenodd">
        <g id="sofa" fill-rule="nonzero">
            <path d="M384.333333,346 C374.231667,346 366,337.874902 366,327.904013 L366,309.808025 L384.333333,309.808025 C413.556667,309.808025 421,300 421,300 L421,327.904013 C421,337.874902 412.768333,346 402.666667,346 L384.333333,346 Z" id="Shape" fill="#FFB731"></path>
            <path d="M69.3333333,346 C59.2316667,346 51,337.874902 51,327.904013 L51,300 C51,300 58.4433333,309.808025 87.6666667,309.808025 L106,309.808025 L106,327.904013 C106,337.874902 97.7683333,346 87.6666667,346 L69.3333333,346 Z" id="Shape" fill="#FFB731"></path>
            <path d="M472,154.6631 C472,131.108937 452.91813,112 429.397331,112 C411.125888,112 395.654101,123.58341 389.612737,139.77805 L369.407321,185.097218 C367.89698,184.156527 306.801842,164.93692 237.141965,164.93692 C167.482089,164.93692 103.974089,184.248752 102.42691,185.207887 L83.2897838,142.692347 C78.1141029,125.022114 61.9424022,112.018445 42.6026692,112.018445 C19.08187,112.018445 0,131.108937 0,154.681545 C0,174.288495 13.2983688,190.630694 31.29353,195.629267 L39.1767736,263.488128 C47.5020682,292.280648 88.6496527,293 88.6496527,293 L383.350347,293 C383.350347,293 424.497932,292.280648 432.823226,263.451238 L440.70647,195.592377 C458.683212,190.612249 472,174.27005 472,154.6631 Z" id="Shape" fill="#24B55D"></path>
            <path d="M42.7564043,88.3971784 C70.6528253,88.3971784 95.6894941,106.772597 104.268751,133.286227 L113.604458,154 C131.667021,147.500478 196.61107,141.240316 237.643901,141.240316 C277.551281,141.240316 341.572829,147.058584 359.284842,153.502869 L369.8936,129.769488 C379.506058,104.986609 403.657126,88.3971784 430.225146,88.3971784 C432.180847,88.3971784 434.044299,88.8022477 435.98155,88.9679579 C435.98155,88.8574845 436,88.7285988 436,88.6181253 C436,39.6783835 396.25867,0 347.200083,0 C341.037779,0 131.962221,0 125.799917,0 C76.7597799,0 37,39.6599713 37,88.6181253 C37,88.7285988 37.01845,88.8574845 37.01845,88.9679579 C38.9372515,88.82066 40.8007029,88.3971784 42.7564043,88.3971784 Z" id="Shape" fill="#24B55D"></path>
        </g>
    </g>
</svg>