<svg xmlns="http://www.w3.org/2000/svg">
    <symbol id="contractors-icon" viewBox="0 0 104.3 105.7">
      <path d="M52.1,53.2c14.7,0,26.6-11.9,26.6-26.6S66.8,0,52.1,0C37.5,0,25.5,11.9,25.5,26.6S37.5,53.2,52.1,53.2z M52.1,8
      	c10.3,0,18.6,8.3,18.6,18.6s-8.3,18.6-18.6,18.6c-10.3,0-18.6-8.3-18.6-18.6S41.9,8,52.1,8z"/>
      <path d="M104.1,97.7c-0.3-1.4-0.8-2.7-1.2-4.1c-0.9-2.8-2.1-5.5-3.4-8c-4.1-7.7-10-14.3-17.1-19.1
      	c-2.3-1.5-4.7-2.9-7.2-4.1c-7-3.3-14.8-5.2-23-5.2c-7.9,0-15.4,1.7-22.2,4.8c-2.5,1.2-5,2.5-7.3,4C15.2,70.9,9.1,77.6,4.8,85.6
      	c-1.3,2.5-2.5,5.2-3.4,8c-0.5,1.3-0.9,2.7-1.2,4.1c-0.5,1.9-0.1,4,1.2,5.5c1.2,1.6,3.1,2.5,5.1,2.5h91.3c2,0,3.9-0.9,5.1-2.5
      	C104.1,101.6,104.6,99.6,104.1,97.7z M8.5,97.7c0.4-1.4,0.9-2.8,1.5-4.1c1.1-2.8,2.6-5.5,4.2-8c3.6-5.4,8.3-10,13.7-13.4
      	c2.3-1.4,4.7-2.6,7.2-3.7c5.3-2.1,11.1-3.3,17.1-3.3c6.3,0,12.4,1.3,17.9,3.7c2.5,1.1,4.8,2.3,7.1,3.8c5.1,3.4,9.5,7.7,13,12.9
      	c1.7,2.5,3.1,5.2,4.2,8c0.5,1.3,1,2.7,1.5,4.1H8.5z"/>
    </symbol>
    <symbol id="documents-icon" viewBox="0 0 102 128.3">
      <g>
      	<path fill="none" d="M70.5,31.8H32h-8.2H8.7v88.3h61.8v-14.8v-8.2V31.8z M59.5,101c-0.1,0-0.2,0-0.2,0H19.7c-2.2,0-4.1-1.9-4.1-4.1
      		s1.8-4.1,4.1-4.1h4.1h31.8h3.5c2.3,0,4.2,1.9,4.2,4.1C63.3,99.1,61.6,100.9,59.5,101z M59.5,76.9c-0.1,0-0.2,0-0.2,0H19.7
      		c-2.2,0-4.1-1.9-4.1-4.1s1.8-4.1,4.1-4.1h4.1h31.8h3.5c2.3,0,4.2,1.9,4.2,4.1C63.3,75,61.6,76.8,59.5,76.9z M59.5,52.9
      		c-0.1,0-0.2,0-0.2,0H19.7c-2.2,0-4.1-1.9-4.1-4.1s1.8-4.1,4.1-4.1h4.1h31.8h3.5c2.3,0,4.2,1.9,4.2,4.1
      		C63.3,50.9,61.6,52.7,59.5,52.9z"/>
      	<path fill="none" d="M93.9,8.9H32v14.8h42.5c0,0,0,0,0.1,0c0,0,0,0,0,0c2.2,0,4.1,1.8,4.1,4.1v69.4h15.2V8.9z"/>
      	<path d="M98,0.7C97.9,0.7,97.9,0.7,98,0.7C97.9,0.7,97.9,0.7,98,0.7H28.5c-0.1,0-0.2,0-0.2,0c-0.1,0-0.2,0-0.3,0
      		c-2.2,0-4.1,1.9-4.1,4.2v18.8H5.1c-0.1,0-0.2,0-0.2,0c-0.1,0-0.2,0-0.3,0c-2.2,0-4.1,1.9-4.1,4.2v96.4c0,2.3,1.9,4.1,4.1,4.1h69.5
      		c0.1,0,0.2,0,0.2,0c0.1,0,0.2,0,0.3,0c2.2,0,4.1-1.9,4.1-4.1v-18.9h18.8c0.1,0,0.2,0,0.2,0c0.1,0,0.2,0,0.3,0
      		c2.2,0,4.1-1.9,4.1-4.1V4.8C102,2.5,100.2,0.7,98,0.7z M70.5,120.1H8.7V31.8h15.2H32h38.5v65.3v8.2V120.1z M78.7,27.7
      		c0-2.3-1.9-4.1-4.1-4.1c0,0,0,0,0,0c0,0,0,0-0.1,0H32V8.9h61.8v88.3H78.7V27.7z"/>
      	<path d="M59.1,44.7h-3.5H23.8h-4.1c-2.3,0-4.1,1.9-4.1,4.1s1.9,4.1,4.1,4.1h39.5c0.1,0,0.2,0,0.2,0
      		c2.2-0.1,3.9-2,3.9-4.1C63.3,46.6,61.4,44.7,59.1,44.7z"/>
      	<path d="M59.1,68.7h-3.5H23.8h-4.1c-2.3,0-4.1,1.9-4.1,4.1s1.9,4.1,4.1,4.1h39.5c0.1,0,0.2,0,0.2,0
      		c2.2-0.1,3.9-2,3.9-4.1C63.3,70.6,61.4,68.7,59.1,68.7z"/>
      	<path d="M59.1,92.8h-3.5H23.8h-4.1c-2.3,0-4.1,1.9-4.1,4.1s1.9,4.1,4.1,4.1h39.5c0.1,0,0.2,0,0.2,0
      		c2.2-0.1,3.9-2,3.9-4.1C63.3,94.7,61.4,92.8,59.1,92.8z"/>
      </g>
    </symbol>
    <symbol id="finance-icon" viewBox="0 0 118.2 102.2">
      <g>
      	<path fill="none" d="M110,69.3C110,69.3,109.9,69.3,110,69.3l-18.5,0c-0.3,0.1-0.7,0.2-1.1,0.2c-2.2,0-4.1-1.8-4.1-4.1V48
      		c0,0,0,0,0-0.1c0,0,0,0,0,0c0-2.2,1.8-4.1,4.1-4.1h19.4c0.1,0,0.1,0,0.2,0V22.7H8.2V94H110V69.3z"/>
      	<path fill="none" d="M110,61.1V52c0,0-0.1,0-0.1,0H94.5v9.1h15.3C109.9,61.1,109.9,61.1,110,61.1z"/>
      	<rect x="8.4" y="8.2" fill="none" width="93.8" height="6.3"/>
      	<path d="M114.1,14.5c-0.1,0-0.2,0-0.3,0c-0.1,0-0.2,0-0.3,0h-3.1V4.9c0-1-0.4-1.8-0.9-2.5C108.8,1,107.4,0,105.7,0H4.3
      		C2,0,0.2,1.9,0.2,4.1c0,0.2,0,0.3,0,0.5c0,0.2,0,0.3,0,0.5v12.4c0,0,0,0,0,0C0.1,17.8,0,18.2,0,18.6c0,0,0,0,0,0c0,0,0,0,0,0.1
      		v79.4c0,2.3,1.9,4.1,4.1,4.1h109.5c0.1,0,0.2,0,0.2,0c0.1,0,0.2,0,0.3,0c2.2,0,4.1-1.9,4.1-4.1V18.6
      		C118.2,16.3,116.3,14.5,114.1,14.5z M8.2,22.7H110v21.1c-0.1,0-0.1,0-0.2,0H90.4c-2.3,0-4.1,1.9-4.1,4.1c0,0,0,0,0,0c0,0,0,0,0,0.1
      		v17.4c0,2.3,1.9,4.1,4.1,4.1c0.4,0,0.7-0.1,1.1-0.2h18.4c0,0,0.1,0,0.1,0V94H8.2V22.7z M94.5,52h15.4c0,0,0.1,0,0.1,0v9.2
      		c-0.1,0-0.1,0-0.2,0H94.5V52z M8.4,14.5V8.2h93.8v6.3H8.4z"/>
      </g>
    </symbol>
    <symbol id="edit-icon" viewBox="0 0 94.6 94.8">
      <path d="M0.1,71.1L0,90.6c0,1.1,0.4,2.2,1.2,3s1.8,1.2,2.9,1.2l19.4-0.1c1.1,0,2.1-0.4,2.9-1.2l67-67
      	c1.6-1.6,1.6-4.2,0-5.9L74.2,1.2c-1.6-1.6-4.2-1.6-5.9,0L54.9,14.7L1.3,68.2C0.6,69,0.1,70,0.1,71.1z M71.3,10l13.5,13.5l-7.6,7.6
      	L63.7,17.6L71.3,10z M8.4,72.9l49.4-49.4L71.3,37L21.9,86.3L8.3,86.4L8.4,72.9z"/>
    </symbol>
    <symbol id="archive-icon" viewBox="0 0 133.2 106.1">
      <g>
      	<rect x="8.2" y="8.3" fill="none" width="116.8" height="10.3"/>
      	<rect x="51.9" y="48.2" fill="none" width="32.3" height="7.4"/>
      	<path fill="none" d="M16.2,98H118V26.8H16.2V98z M47.4,40c0.2,0,0.3,0,0.5,0c0,0,0,0,0,0s0,0,0,0h40.5c2.2,0,4.1,1.8,4.1,4.1v15.4
      		c0,0,0,0.1,0,0.1c0,0,0,0.1,0,0.1c0,2.2-1.8,4.1-4.1,4.1H48c-1.2,0-2.2-0.5-3-1.2c-0.8-0.7-1.2-1.8-1.2-2.9V44.1
      		c0-0.6,0.2-1.2,0.4-1.7C44.7,41.1,45.9,40.2,47.4,40z"/>
      	<path d="M129.1,0.1c-0.2,0-0.3,0-0.5,0.1c-0.2,0-0.4-0.1-0.6-0.1H5.1c-0.2,0-0.4,0-0.5,0c-0.2,0-0.3,0-0.5,0
      		C1.9,0.1,0,2,0,4.2v18.5c0,2.3,1.9,4.1,4.1,4.1c0.2,0,0.3,0,0.5-0.1c0.2,0,0.4,0.1,0.6,0.1H8V102c0,2.3,1.9,4.1,4.1,4.1h109.5
      		c0.1,0,0.2,0,0.2,0c0.1,0,0.2,0,0.3,0c2.2,0,4.1-1.9,4.1-4.1V26.8h1.8c0.2,0,0.4,0,0.6-0.1c0.2,0,0.3,0.1,0.5,0.1
      		c2.2,0,4.1-1.9,4.1-4.2V4.2C133.2,1.9,131.3,0.1,129.1,0.1z M8.2,18.6V8.3H125v10.3H8.2z M118,98H16.2V26.8H118V98z"/>
      	<path d="M43.7,59.6c0,1.2,0.5,2.2,1.2,2.9c0.8,0.8,1.8,1.2,3,1.2h40.4c2.3,0,4.1-1.9,4.1-4.1c0,0,0-0.1,0-0.1
      		c0,0,0-0.1,0-0.1V44.1c0-2.3-1.9-4.1-4.1-4.1H47.8c0,0,0,0,0,0s0,0,0,0c-0.2,0-0.3,0-0.5,0c-1.4,0.2-2.6,1.1-3.2,2.3
      		c-0.3,0.5-0.4,1.1-0.4,1.7V59.6z M84.3,55.6H51.9v-7.4h32.3V55.6z"/>
      </g>
    </symbol>
    <symbol id="arrow-left" viewBox="0 0 112.8 77.6">
      <g>
      	<path d="M1.5,42.5l33.6,33.6c2,2,5.4,2,7.4,0c2-2,2-5.4,0-7.4L17.9,44.1h89.7c2.9,0,5.2-2.3,5.2-5.2
      		c0-2.9-2.3-5.2-5.2-5.2H17.9L42.5,9c2-2,2-5.4,0-7.4c-1-1-2.4-1.5-3.7-1.5c-1.3,0-2.7,0.5-3.7,1.5L1.5,35.1
      		C-0.5,37.2-0.5,40.5,1.5,42.5z"/>
      </g>
    </symbol>
</svg>
