<?xml version="1.0" encoding="UTF-8"?>
<svg width="517px" height="489px" viewBox="0 0 517 489" version="1.1" xmlns="http://www.w3.org/2000/svg" xmlns:xlink="http://www.w3.org/1999/xlink">
    <!-- Generator: Sketch 50.2 (55047) - http://www.bohemiancoding.com/sketch -->
    <title>vacuum</title>
    <desc>Created with Sketch.</desc>
    <defs></defs>
    <g id="Page-1" stroke="none" stroke-width="1" fill="none" fill-rule="evenodd">
        <g id="vacuum" fill-rule="nonzero">
            <path d="M439.875,264.531043 L439.875,349.018 C429.251,344.065 417.451,341.225 404.972,341.225 C359.168,341.225 321.893,378.489 321.893,424.303 C321.893,443.438 328.462,461.033 339.383,475.099 L248.625,475.099 C238.059,475.099 229.5,461.759 229.5,451.193 L247.564,336.157 C275.716,196.995 382.291,188.226 392.857,188.226 L430.313,188.226 C440.879,188.226 439.875,187.222 439.875,197.788 L439.875,220.126 L439.875,221.700194 C448.581384,219.898307 461.965276,209.179054 463.236,207.761 C477.454,191.897 481.978,158.945 476.642,109.803 C473.793,83.564 461.582,64.047 440.324,51.778 C411.417,35.092 368.921,34.843 332.067,51.128 C297.786,66.275 271.593,101.073 255.232,128.642 C263.896,133.557 267.453,144.363 263.074,153.476 C259.784,160.333 252.947,164.33 245.823,164.33 C243.136,164.33 240.43,163.736 237.839,162.541 L141.821,373.441 C149.911,378.643 153.029,389.134 148.649,397.95 C145.302,404.672 138.531,408.564 131.503,408.564 C129.734,408.564 127.965,408.22 126.215,407.713 L112.952,436.85 L114.75,436.85 C125.307,436.85 133.875,445.418 133.875,455.975 C133.875,466.532 125.307,475.1 114.75,475.1 L19.125,475.1 C8.568,475.1 0,466.532 0,455.975 C0,445.418 8.568,436.85 19.125,436.85 L70.925,436.85 L91.139,390.72 C81.682,386.016 77.828,374.54 82.523,365.083 C87.132,355.798 98.263,351.963 107.606,356.267 L200.267,152.739 C200.668,151.726 201.73,149.125 203.47,145.252 C197.121,139.744 194.893,130.525 198.708,122.579 C202.695,114.269 211.885,110.186 220.472,112.28 C239.549,79.518 271.823,35.923 316.595,16.138 C364.981,-5.234 419.726,-4.268 459.439,18.653 C490.938,36.822 510.561,67.728 514.672,105.681 C521.317,166.929 513.811,208.679 491.703,233.303 C482.229535,243.860866 460.038784,261.268328 439.874997,264.531043 Z" id="Combined-Shape" fill="#24B55D"></path>
            <path d="M449.438,378.441 C446.502,375.601 443.308,373.039 439.876,370.792 C429.826,364.213 417.844,360.35 404.973,360.35 C369.706,360.35 341.019,389.038 341.019,424.304 C341.019,445.016 350.964,463.414 366.284,475.1 C371.62,479.173 377.596,482.415 384.051,484.662 C390.62,486.947 397.64,488.248 404.974,488.248 C412.309,488.248 419.328,486.947 425.897,484.662 C432.668,482.309 438.931,478.857 444.458,474.507 C449.66,470.414 454.241,465.566 457.961,460.077 C464.884,449.854 468.939,437.538 468.939,424.294 C468.939,411.768 465.267,400.11 459.023,390.242 C456.274,385.938 453.081,381.971 449.438,378.441 Z M404.972,392.222 C422.682,392.222 437.045,406.584 437.045,424.294 C437.045,442.004 422.682,456.367 404.972,456.367 C387.262,456.367 372.9,442.004 372.9,424.294 C372.9,406.584 387.253,392.222 404.972,392.222 Z" id="Shape" fill="#FFB731"></path>
        </g>
    </g>
</svg>